<mxfile host="app.diagrams.net" modified="2023-09-27T16:58:08.976Z" agent="Mozilla/5.0 (Windows NT 10.0; Win64; x64) AppleWebKit/537.36 (KHTML, like Gecko) Chrome/116.0.0.0 Safari/537.36" etag="fnkmZTl13Ih-O0n9dhLU" version="21.8.2" type="github">
  <diagram name="Page-1" id="6ToMnfJNtkWmzSoSRB6r">
    <mxGraphModel dx="1116" dy="739" grid="1" gridSize="10" guides="1" tooltips="1" connect="1" arrows="1" fold="1" page="1" pageScale="1" pageWidth="850" pageHeight="1100" math="0" shadow="0">
      <root>
        <mxCell id="0" />
        <mxCell id="1" parent="0" />
        <mxCell id="N9twt3XVIyGbYr9oYpKm-17" value="Table" style="shape=table;startSize=30;container=1;collapsible=0;childLayout=tableLayout;" parent="1" vertex="1">
          <mxGeometry x="40" y="40" width="1190" height="820" as="geometry" />
        </mxCell>
        <mxCell id="N9twt3XVIyGbYr9oYpKm-18" value="" style="shape=tableRow;horizontal=0;startSize=0;swimlaneHead=0;swimlaneBody=0;strokeColor=inherit;top=0;left=0;bottom=0;right=0;collapsible=0;dropTarget=0;fillColor=none;points=[[0,0.5],[1,0.5]];portConstraint=eastwest;" parent="N9twt3XVIyGbYr9oYpKm-17" vertex="1">
          <mxGeometry y="30" width="1190" height="235" as="geometry" />
        </mxCell>
        <mxCell id="N9twt3XVIyGbYr9oYpKm-22" value="Data analyst" style="shape=partialRectangle;html=1;whiteSpace=wrap;connectable=0;strokeColor=inherit;overflow=hidden;fillColor=default;top=0;left=0;bottom=0;right=0;pointerEvents=1;" parent="N9twt3XVIyGbYr9oYpKm-18" vertex="1">
          <mxGeometry width="40" height="235" as="geometry">
            <mxRectangle width="40" height="235" as="alternateBounds" />
          </mxGeometry>
        </mxCell>
        <mxCell id="N9twt3XVIyGbYr9oYpKm-19" value="" style="shape=partialRectangle;html=1;whiteSpace=wrap;connectable=0;strokeColor=inherit;overflow=hidden;fillColor=none;top=0;left=0;bottom=0;right=0;pointerEvents=1;" parent="N9twt3XVIyGbYr9oYpKm-18" vertex="1">
          <mxGeometry x="40" width="1150" height="235" as="geometry">
            <mxRectangle width="1150" height="235" as="alternateBounds" />
          </mxGeometry>
        </mxCell>
        <mxCell id="N9twt3XVIyGbYr9oYpKm-20" value="" style="shape=tableRow;horizontal=0;startSize=0;swimlaneHead=0;swimlaneBody=0;strokeColor=inherit;top=0;left=0;bottom=0;right=0;collapsible=0;dropTarget=0;fillColor=none;points=[[0,0.5],[1,0.5]];portConstraint=eastwest;" parent="N9twt3XVIyGbYr9oYpKm-17" vertex="1">
          <mxGeometry y="265" width="1190" height="555" as="geometry" />
        </mxCell>
        <mxCell id="N9twt3XVIyGbYr9oYpKm-23" value="Admin" style="shape=partialRectangle;html=1;whiteSpace=wrap;connectable=0;strokeColor=inherit;overflow=hidden;fillColor=default;top=0;left=0;bottom=0;right=0;pointerEvents=1;" parent="N9twt3XVIyGbYr9oYpKm-20" vertex="1">
          <mxGeometry width="40" height="555" as="geometry">
            <mxRectangle width="40" height="555" as="alternateBounds" />
          </mxGeometry>
        </mxCell>
        <mxCell id="N9twt3XVIyGbYr9oYpKm-21" value="" style="shape=partialRectangle;html=1;whiteSpace=wrap;connectable=0;strokeColor=inherit;overflow=hidden;fillColor=none;top=0;left=0;bottom=0;right=0;pointerEvents=1;" parent="N9twt3XVIyGbYr9oYpKm-20" vertex="1">
          <mxGeometry x="40" width="1150" height="555" as="geometry">
            <mxRectangle width="1150" height="555" as="alternateBounds" />
          </mxGeometry>
        </mxCell>
        <mxCell id="N9twt3XVIyGbYr9oYpKm-39" value="" style="whiteSpace=wrap;html=1;strokeWidth=2;" parent="N9twt3XVIyGbYr9oYpKm-20" vertex="1">
          <mxGeometry x="1190" width="NaN" height="555" as="geometry">
            <mxRectangle width="NaN" height="555" as="alternateBounds" />
          </mxGeometry>
        </mxCell>
        <mxCell id="N9twt3XVIyGbYr9oYpKm-49" value="" style="whiteSpace=wrap;html=1;strokeWidth=2;" parent="N9twt3XVIyGbYr9oYpKm-20" vertex="1">
          <mxGeometry width="NaN" height="555" as="geometry">
            <mxRectangle width="NaN" height="555" as="alternateBounds" />
          </mxGeometry>
        </mxCell>
        <mxCell id="N9twt3XVIyGbYr9oYpKm-54" value="" style="rounded=1;whiteSpace=wrap;html=1;absoluteArcSize=1;arcSize=14;strokeWidth=2;" parent="N9twt3XVIyGbYr9oYpKm-20" vertex="1">
          <mxGeometry width="NaN" height="555" as="geometry">
            <mxRectangle width="NaN" height="555" as="alternateBounds" />
          </mxGeometry>
        </mxCell>
        <mxCell id="N9twt3XVIyGbYr9oYpKm-59" value="" style="rounded=1;whiteSpace=wrap;html=1;absoluteArcSize=1;arcSize=14;strokeWidth=2;" parent="N9twt3XVIyGbYr9oYpKm-20" vertex="1">
          <mxGeometry width="NaN" height="555" as="geometry">
            <mxRectangle width="NaN" height="555" as="alternateBounds" />
          </mxGeometry>
        </mxCell>
        <mxCell id="N9twt3XVIyGbYr9oYpKm-80" value="" style="whiteSpace=wrap;html=1;rounded=1;arcSize=14;strokeWidth=2;" parent="N9twt3XVIyGbYr9oYpKm-20" vertex="1">
          <mxGeometry width="NaN" height="555" as="geometry">
            <mxRectangle width="NaN" height="555" as="alternateBounds" />
          </mxGeometry>
        </mxCell>
        <mxCell id="N9twt3XVIyGbYr9oYpKm-29" style="edgeStyle=orthogonalEdgeStyle;rounded=0;orthogonalLoop=1;jettySize=auto;html=1;exitX=1;exitY=0.5;exitDx=0;exitDy=0;exitPerimeter=0;" parent="1" source="N9twt3XVIyGbYr9oYpKm-24" target="N9twt3XVIyGbYr9oYpKm-18" edge="1">
          <mxGeometry relative="1" as="geometry">
            <Array as="points">
              <mxPoint x="290" y="190" />
              <mxPoint x="290" y="190" />
            </Array>
          </mxGeometry>
        </mxCell>
        <mxCell id="N9twt3XVIyGbYr9oYpKm-33" value="" style="edgeStyle=orthogonalEdgeStyle;rounded=0;orthogonalLoop=1;jettySize=auto;html=1;" parent="1" source="N9twt3XVIyGbYr9oYpKm-24" target="N9twt3XVIyGbYr9oYpKm-31" edge="1">
          <mxGeometry relative="1" as="geometry" />
        </mxCell>
        <mxCell id="N9twt3XVIyGbYr9oYpKm-24" value="Ask for access in the app" style="strokeWidth=2;html=1;shape=mxgraph.flowchart.start_1;whiteSpace=wrap;" parent="1" vertex="1">
          <mxGeometry x="100" y="160" width="100" height="60" as="geometry" />
        </mxCell>
        <mxCell id="N9twt3XVIyGbYr9oYpKm-57" value="" style="edgeStyle=orthogonalEdgeStyle;rounded=0;orthogonalLoop=1;jettySize=auto;html=1;" parent="1" source="N9twt3XVIyGbYr9oYpKm-31" target="N9twt3XVIyGbYr9oYpKm-56" edge="1">
          <mxGeometry relative="1" as="geometry" />
        </mxCell>
        <mxCell id="N9twt3XVIyGbYr9oYpKm-31" value="Mail send to admin" style="rounded=1;whiteSpace=wrap;html=1;absoluteArcSize=1;arcSize=14;strokeWidth=2;" parent="1" vertex="1">
          <mxGeometry x="290" y="150" width="100" height="80" as="geometry" />
        </mxCell>
        <mxCell id="N9twt3XVIyGbYr9oYpKm-40" value="" style="edgeStyle=orthogonalEdgeStyle;rounded=0;orthogonalLoop=1;jettySize=auto;html=1;" parent="1" source="N9twt3XVIyGbYr9oYpKm-36" target="N9twt3XVIyGbYr9oYpKm-39" edge="1">
          <mxGeometry relative="1" as="geometry" />
        </mxCell>
        <mxCell id="N9twt3XVIyGbYr9oYpKm-50" value="" style="edgeStyle=orthogonalEdgeStyle;rounded=0;orthogonalLoop=1;jettySize=auto;html=1;" parent="1" source="N9twt3XVIyGbYr9oYpKm-46" target="N9twt3XVIyGbYr9oYpKm-49" edge="1">
          <mxGeometry relative="1" as="geometry" />
        </mxCell>
        <mxCell id="N9twt3XVIyGbYr9oYpKm-60" value="" style="edgeStyle=orthogonalEdgeStyle;rounded=0;orthogonalLoop=1;jettySize=auto;html=1;" parent="1" source="N9twt3XVIyGbYr9oYpKm-56" target="N9twt3XVIyGbYr9oYpKm-59" edge="1">
          <mxGeometry relative="1" as="geometry" />
        </mxCell>
        <mxCell id="N9twt3XVIyGbYr9oYpKm-62" value="" style="edgeStyle=orthogonalEdgeStyle;rounded=0;orthogonalLoop=1;jettySize=auto;html=1;" parent="1" source="N9twt3XVIyGbYr9oYpKm-56" target="N9twt3XVIyGbYr9oYpKm-61" edge="1">
          <mxGeometry relative="1" as="geometry" />
        </mxCell>
        <mxCell id="N9twt3XVIyGbYr9oYpKm-81" value="" style="edgeStyle=orthogonalEdgeStyle;rounded=0;orthogonalLoop=1;jettySize=auto;html=1;" parent="1" source="N9twt3XVIyGbYr9oYpKm-56" target="N9twt3XVIyGbYr9oYpKm-80" edge="1">
          <mxGeometry relative="1" as="geometry" />
        </mxCell>
        <mxCell id="N9twt3XVIyGbYr9oYpKm-83" value="" style="edgeStyle=orthogonalEdgeStyle;rounded=0;orthogonalLoop=1;jettySize=auto;html=1;" parent="1" source="N9twt3XVIyGbYr9oYpKm-56" target="N9twt3XVIyGbYr9oYpKm-82" edge="1">
          <mxGeometry relative="1" as="geometry" />
        </mxCell>
        <mxCell id="N9twt3XVIyGbYr9oYpKm-56" value="Mail send to admin" style="rounded=1;whiteSpace=wrap;html=1;absoluteArcSize=1;arcSize=14;strokeWidth=2;" parent="1" vertex="1">
          <mxGeometry x="290" y="380" width="100" height="80" as="geometry" />
        </mxCell>
        <mxCell id="N9twt3XVIyGbYr9oYpKm-85" style="edgeStyle=orthogonalEdgeStyle;rounded=0;orthogonalLoop=1;jettySize=auto;html=1;exitX=1;exitY=0.5;exitDx=0;exitDy=0;" parent="1" source="N9twt3XVIyGbYr9oYpKm-61" edge="1">
          <mxGeometry relative="1" as="geometry">
            <mxPoint x="620" y="420" as="targetPoint" />
          </mxGeometry>
        </mxCell>
        <mxCell id="N9twt3XVIyGbYr9oYpKm-61" value="Approve or refuse in the app" style="rounded=1;whiteSpace=wrap;html=1;absoluteArcSize=1;arcSize=14;strokeWidth=2;" parent="1" vertex="1">
          <mxGeometry x="290" y="543" width="100" height="80" as="geometry" />
        </mxCell>
        <mxCell id="N9twt3XVIyGbYr9oYpKm-75" value="" style="group" parent="1" vertex="1" connectable="0">
          <mxGeometry x="620" y="150" width="500" height="480" as="geometry" />
        </mxCell>
        <mxCell id="N9twt3XVIyGbYr9oYpKm-77" style="edgeStyle=orthogonalEdgeStyle;rounded=0;orthogonalLoop=1;jettySize=auto;html=1;exitX=0.5;exitY=1;exitDx=0;exitDy=0;exitPerimeter=0;" parent="N9twt3XVIyGbYr9oYpKm-75" source="N9twt3XVIyGbYr9oYpKm-36" target="N9twt3XVIyGbYr9oYpKm-45" edge="1">
          <mxGeometry relative="1" as="geometry" />
        </mxCell>
        <mxCell id="N9twt3XVIyGbYr9oYpKm-78" value="No" style="edgeLabel;html=1;align=center;verticalAlign=middle;resizable=0;points=[];" parent="N9twt3XVIyGbYr9oYpKm-77" vertex="1" connectable="0">
          <mxGeometry x="0.075" y="2" relative="1" as="geometry">
            <mxPoint as="offset" />
          </mxGeometry>
        </mxCell>
        <mxCell id="N9twt3XVIyGbYr9oYpKm-36" value="Approved?" style="strokeWidth=2;html=1;shape=mxgraph.flowchart.decision;whiteSpace=wrap;" parent="N9twt3XVIyGbYr9oYpKm-75" vertex="1">
          <mxGeometry y="200" width="140" height="140" as="geometry" />
        </mxCell>
        <mxCell id="N9twt3XVIyGbYr9oYpKm-45" value="Flow end" style="strokeWidth=2;html=1;shape=mxgraph.flowchart.terminator;whiteSpace=wrap;" parent="N9twt3XVIyGbYr9oYpKm-75" vertex="1">
          <mxGeometry x="20" y="420" width="100" height="60" as="geometry" />
        </mxCell>
        <mxCell id="N9twt3XVIyGbYr9oYpKm-46" value="Send&amp;nbsp; confirmation mail" style="whiteSpace=wrap;html=1;strokeWidth=2;" parent="N9twt3XVIyGbYr9oYpKm-75" vertex="1">
          <mxGeometry x="210" y="240" width="120" height="60" as="geometry" />
        </mxCell>
        <mxCell id="N9twt3XVIyGbYr9oYpKm-47" value="" style="edgeStyle=orthogonalEdgeStyle;rounded=0;orthogonalLoop=1;jettySize=auto;html=1;" parent="N9twt3XVIyGbYr9oYpKm-75" source="N9twt3XVIyGbYr9oYpKm-36" target="N9twt3XVIyGbYr9oYpKm-46" edge="1">
          <mxGeometry relative="1" as="geometry" />
        </mxCell>
        <mxCell id="N9twt3XVIyGbYr9oYpKm-79" value="Yes" style="edgeLabel;html=1;align=center;verticalAlign=middle;resizable=0;points=[];" parent="N9twt3XVIyGbYr9oYpKm-47" vertex="1" connectable="0">
          <mxGeometry y="2" relative="1" as="geometry">
            <mxPoint as="offset" />
          </mxGeometry>
        </mxCell>
        <mxCell id="N9twt3XVIyGbYr9oYpKm-48" value="Flow end" style="strokeWidth=2;html=1;shape=mxgraph.flowchart.terminator;whiteSpace=wrap;" parent="N9twt3XVIyGbYr9oYpKm-75" vertex="1">
          <mxGeometry x="400" width="100" height="60" as="geometry" />
        </mxCell>
        <mxCell id="N9twt3XVIyGbYr9oYpKm-53" value="" style="edgeStyle=orthogonalEdgeStyle;rounded=0;orthogonalLoop=1;jettySize=auto;html=1;" parent="N9twt3XVIyGbYr9oYpKm-75" source="N9twt3XVIyGbYr9oYpKm-51" target="N9twt3XVIyGbYr9oYpKm-48" edge="1">
          <mxGeometry relative="1" as="geometry" />
        </mxCell>
        <mxCell id="N9twt3XVIyGbYr9oYpKm-51" value="User Notified" style="whiteSpace=wrap;html=1;strokeWidth=2;" parent="N9twt3XVIyGbYr9oYpKm-75" vertex="1">
          <mxGeometry x="210" width="120" height="60" as="geometry" />
        </mxCell>
        <mxCell id="N9twt3XVIyGbYr9oYpKm-52" value="" style="edgeStyle=orthogonalEdgeStyle;rounded=0;orthogonalLoop=1;jettySize=auto;html=1;" parent="N9twt3XVIyGbYr9oYpKm-75" source="N9twt3XVIyGbYr9oYpKm-46" target="N9twt3XVIyGbYr9oYpKm-51" edge="1">
          <mxGeometry relative="1" as="geometry" />
        </mxCell>
        <mxCell id="N9twt3XVIyGbYr9oYpKm-84" value="" style="edgeStyle=orthogonalEdgeStyle;rounded=0;orthogonalLoop=1;jettySize=auto;html=1;" parent="1" source="N9twt3XVIyGbYr9oYpKm-82" target="N9twt3XVIyGbYr9oYpKm-36" edge="1">
          <mxGeometry relative="1" as="geometry" />
        </mxCell>
        <mxCell id="N9twt3XVIyGbYr9oYpKm-82" value="Approve or refuse in the mail" style="rounded=1;whiteSpace=wrap;html=1;absoluteArcSize=1;arcSize=14;strokeWidth=2;" parent="1" vertex="1">
          <mxGeometry x="440" y="380" width="100" height="80" as="geometry" />
        </mxCell>
        <mxCell id="Njs2g6kiYrGpvOyY1wpJ-1" value="Party" style="whiteSpace=wrap;html=1;aspect=fixed;labelBackgroundColor=none;labelBorderColor=none;fillColor=#fff2cc;strokeColor=#d6b656;" vertex="1" parent="1">
          <mxGeometry x="280" y="1220" width="80" height="80" as="geometry" />
        </mxCell>
        <mxCell id="Njs2g6kiYrGpvOyY1wpJ-2" value="" style="shape=link;html=1;rounded=0;labelBackgroundColor=none;labelBorderColor=none;fontColor=#333333;" edge="1" parent="1">
          <mxGeometry width="100" relative="1" as="geometry">
            <mxPoint x="280" y="1250" as="sourcePoint" />
            <mxPoint x="230" y="1300" as="targetPoint" />
          </mxGeometry>
        </mxCell>
        <mxCell id="Njs2g6kiYrGpvOyY1wpJ-7" value="Child" style="edgeLabel;html=1;align=center;verticalAlign=middle;resizable=0;points=[];labelBackgroundColor=none;labelBorderColor=none;fontColor=#333333;" vertex="1" connectable="0" parent="Njs2g6kiYrGpvOyY1wpJ-2">
          <mxGeometry x="-0.1985" y="3" relative="1" as="geometry">
            <mxPoint as="offset" />
          </mxGeometry>
        </mxCell>
        <mxCell id="Njs2g6kiYrGpvOyY1wpJ-3" value="" style="shape=link;html=1;rounded=0;labelBackgroundColor=none;labelBorderColor=none;fontColor=#333333;" edge="1" parent="1">
          <mxGeometry width="100" relative="1" as="geometry">
            <mxPoint x="360" y="1250" as="sourcePoint" />
            <mxPoint x="420" y="1290" as="targetPoint" />
          </mxGeometry>
        </mxCell>
        <mxCell id="Njs2g6kiYrGpvOyY1wpJ-5" value="Child" style="edgeLabel;html=1;align=center;verticalAlign=middle;resizable=0;points=[];labelBackgroundColor=none;labelBorderColor=none;fontColor=#333333;" vertex="1" connectable="0" parent="Njs2g6kiYrGpvOyY1wpJ-3">
          <mxGeometry x="-0.2006" y="-1" relative="1" as="geometry">
            <mxPoint as="offset" />
          </mxGeometry>
        </mxCell>
        <mxCell id="Njs2g6kiYrGpvOyY1wpJ-4" value="" style="shape=link;html=1;rounded=0;labelBackgroundColor=none;labelBorderColor=none;fontColor=#333333;" edge="1" parent="1">
          <mxGeometry width="100" relative="1" as="geometry">
            <mxPoint x="320" y="1300" as="sourcePoint" />
            <mxPoint x="320" y="1350" as="targetPoint" />
          </mxGeometry>
        </mxCell>
        <mxCell id="Njs2g6kiYrGpvOyY1wpJ-6" value="Child" style="edgeLabel;html=1;align=center;verticalAlign=middle;resizable=0;points=[];labelBackgroundColor=none;labelBorderColor=none;fontColor=#333333;" vertex="1" connectable="0" parent="Njs2g6kiYrGpvOyY1wpJ-4">
          <mxGeometry x="-0.2351" relative="1" as="geometry">
            <mxPoint as="offset" />
          </mxGeometry>
        </mxCell>
        <mxCell id="Njs2g6kiYrGpvOyY1wpJ-22" value="" style="edgeStyle=orthogonalEdgeStyle;rounded=0;orthogonalLoop=1;jettySize=auto;html=1;shape=link;labelBackgroundColor=none;labelBorderColor=none;fontColor=#333333;" edge="1" parent="1" source="Njs2g6kiYrGpvOyY1wpJ-8" target="Njs2g6kiYrGpvOyY1wpJ-21">
          <mxGeometry relative="1" as="geometry" />
        </mxCell>
        <mxCell id="Njs2g6kiYrGpvOyY1wpJ-24" value="Child" style="edgeLabel;html=1;align=center;verticalAlign=middle;resizable=0;points=[];labelBackgroundColor=none;labelBorderColor=none;fontColor=#333333;" vertex="1" connectable="0" parent="Njs2g6kiYrGpvOyY1wpJ-22">
          <mxGeometry x="-0.0693" y="-2" relative="1" as="geometry">
            <mxPoint as="offset" />
          </mxGeometry>
        </mxCell>
        <mxCell id="Njs2g6kiYrGpvOyY1wpJ-26" value="" style="edgeStyle=orthogonalEdgeStyle;rounded=0;orthogonalLoop=1;jettySize=auto;html=1;shape=link;labelBackgroundColor=none;labelBorderColor=none;fontColor=#333333;" edge="1" parent="1" source="Njs2g6kiYrGpvOyY1wpJ-8" target="Njs2g6kiYrGpvOyY1wpJ-25">
          <mxGeometry relative="1" as="geometry" />
        </mxCell>
        <mxCell id="Njs2g6kiYrGpvOyY1wpJ-27" value="Child" style="edgeLabel;html=1;align=center;verticalAlign=middle;resizable=0;points=[];labelBackgroundColor=none;labelBorderColor=none;fontColor=#333333;" vertex="1" connectable="0" parent="Njs2g6kiYrGpvOyY1wpJ-26">
          <mxGeometry x="-0.2888" y="-3" relative="1" as="geometry">
            <mxPoint as="offset" />
          </mxGeometry>
        </mxCell>
        <mxCell id="Njs2g6kiYrGpvOyY1wpJ-28" style="edgeStyle=orthogonalEdgeStyle;rounded=0;orthogonalLoop=1;jettySize=auto;html=1;exitX=0;exitY=0;exitDx=0;exitDy=0;shape=link;labelBackgroundColor=none;labelBorderColor=none;fontColor=#333333;" edge="1" parent="1" source="Njs2g6kiYrGpvOyY1wpJ-8">
          <mxGeometry relative="1" as="geometry">
            <mxPoint x="189" y="1260" as="targetPoint" />
          </mxGeometry>
        </mxCell>
        <mxCell id="Njs2g6kiYrGpvOyY1wpJ-8" value="&lt;div style=&quot;&quot;&gt;&lt;span style=&quot;font-size: 10px;&quot;&gt;Contact&lt;/span&gt;&lt;/div&gt;&lt;div style=&quot;&quot;&gt;&lt;span style=&quot;font-size: 10px;&quot;&gt;Method&lt;/span&gt;&lt;/div&gt;" style="ellipse;whiteSpace=wrap;html=1;aspect=fixed;align=center;labelBackgroundColor=none;labelBorderColor=none;fillColor=#fff2cc;strokeColor=#d6b656;" vertex="1" parent="1">
          <mxGeometry x="180" y="1290" width="60" height="60" as="geometry" />
        </mxCell>
        <mxCell id="Njs2g6kiYrGpvOyY1wpJ-9" value="Company" style="ellipse;whiteSpace=wrap;html=1;aspect=fixed;labelBackgroundColor=none;labelBorderColor=none;fillColor=#fff2cc;strokeColor=#d6b656;" vertex="1" parent="1">
          <mxGeometry x="290" y="1350" width="60" height="60" as="geometry" />
        </mxCell>
        <mxCell id="Njs2g6kiYrGpvOyY1wpJ-10" value="Person" style="ellipse;whiteSpace=wrap;html=1;aspect=fixed;labelBackgroundColor=none;labelBorderColor=none;fillColor=#fff2cc;strokeColor=#d6b656;" vertex="1" parent="1">
          <mxGeometry x="410" y="1270" width="70" height="70" as="geometry" />
        </mxCell>
        <mxCell id="Njs2g6kiYrGpvOyY1wpJ-21" value="&lt;div style=&quot;&quot;&gt;&lt;span style=&quot;font-size: 10px;&quot;&gt;Phone Number&lt;/span&gt;&lt;/div&gt;" style="ellipse;whiteSpace=wrap;html=1;aspect=fixed;align=center;labelBackgroundColor=none;labelBorderColor=none;fillColor=#fff2cc;strokeColor=#d6b656;" vertex="1" parent="1">
          <mxGeometry x="185" y="1400" width="50" height="50" as="geometry" />
        </mxCell>
        <mxCell id="Njs2g6kiYrGpvOyY1wpJ-25" value="&lt;div style=&quot;&quot;&gt;&lt;span style=&quot;font-size: 10px;&quot;&gt;Email&lt;/span&gt;&lt;/div&gt;" style="ellipse;whiteSpace=wrap;html=1;aspect=fixed;align=center;labelBackgroundColor=none;labelBorderColor=none;fillColor=#fff2cc;strokeColor=#d6b656;" vertex="1" parent="1">
          <mxGeometry x="90" y="1300" width="40" height="40" as="geometry" />
        </mxCell>
        <mxCell id="Njs2g6kiYrGpvOyY1wpJ-29" value="&lt;div style=&quot;&quot;&gt;&lt;span style=&quot;font-size: 10px;&quot;&gt;Address&lt;/span&gt;&lt;/div&gt;" style="ellipse;whiteSpace=wrap;html=1;aspect=fixed;align=center;labelBackgroundColor=none;labelBorderColor=none;fillColor=#fff2cc;strokeColor=#d6b656;" vertex="1" parent="1">
          <mxGeometry x="170" y="1220" width="40" height="40" as="geometry" />
        </mxCell>
        <mxCell id="Njs2g6kiYrGpvOyY1wpJ-31" value="&lt;font color=&quot;#333333&quot;&gt;Data Model&lt;/font&gt;" style="text;html=1;align=center;verticalAlign=middle;resizable=0;points=[];autosize=1;strokeColor=#d6b656;fillColor=#fff2cc;" vertex="1" parent="1">
          <mxGeometry x="280" y="1148" width="80" height="30" as="geometry" />
        </mxCell>
        <mxCell id="Njs2g6kiYrGpvOyY1wpJ-87" value="Shopping History" style="whiteSpace=wrap;html=1;aspect=fixed;labelBackgroundColor=none;labelBorderColor=none;fillColor=#fff2cc;strokeColor=#d6b656;" vertex="1" parent="1">
          <mxGeometry x="290" y="1480" width="80" height="80" as="geometry" />
        </mxCell>
        <mxCell id="Njs2g6kiYrGpvOyY1wpJ-88" value="" style="shape=link;html=1;rounded=0;labelBackgroundColor=none;labelBorderColor=none;fontColor=#333333;" edge="1" parent="1">
          <mxGeometry width="100" relative="1" as="geometry">
            <mxPoint x="290" y="1510" as="sourcePoint" />
            <mxPoint x="240" y="1560" as="targetPoint" />
          </mxGeometry>
        </mxCell>
        <mxCell id="Njs2g6kiYrGpvOyY1wpJ-89" value="Child" style="edgeLabel;html=1;align=center;verticalAlign=middle;resizable=0;points=[];labelBackgroundColor=none;labelBorderColor=none;fontColor=#333333;" vertex="1" connectable="0" parent="Njs2g6kiYrGpvOyY1wpJ-88">
          <mxGeometry x="-0.1985" y="3" relative="1" as="geometry">
            <mxPoint as="offset" />
          </mxGeometry>
        </mxCell>
        <mxCell id="Njs2g6kiYrGpvOyY1wpJ-90" value="" style="shape=link;html=1;rounded=0;labelBackgroundColor=none;labelBorderColor=none;fontColor=#333333;" edge="1" parent="1">
          <mxGeometry width="100" relative="1" as="geometry">
            <mxPoint x="370" y="1510" as="sourcePoint" />
            <mxPoint x="430" y="1550" as="targetPoint" />
          </mxGeometry>
        </mxCell>
        <mxCell id="Njs2g6kiYrGpvOyY1wpJ-91" value="Child" style="edgeLabel;html=1;align=center;verticalAlign=middle;resizable=0;points=[];labelBackgroundColor=none;labelBorderColor=none;fontColor=#333333;" vertex="1" connectable="0" parent="Njs2g6kiYrGpvOyY1wpJ-90">
          <mxGeometry x="-0.2006" y="-1" relative="1" as="geometry">
            <mxPoint as="offset" />
          </mxGeometry>
        </mxCell>
        <mxCell id="Njs2g6kiYrGpvOyY1wpJ-92" value="" style="shape=link;html=1;rounded=0;labelBackgroundColor=none;labelBorderColor=none;fontColor=#333333;" edge="1" parent="1">
          <mxGeometry width="100" relative="1" as="geometry">
            <mxPoint x="330" y="1560" as="sourcePoint" />
            <mxPoint x="330" y="1610" as="targetPoint" />
          </mxGeometry>
        </mxCell>
        <mxCell id="Njs2g6kiYrGpvOyY1wpJ-93" value="Child" style="edgeLabel;html=1;align=center;verticalAlign=middle;resizable=0;points=[];labelBackgroundColor=none;labelBorderColor=none;fontColor=#333333;" vertex="1" connectable="0" parent="Njs2g6kiYrGpvOyY1wpJ-92">
          <mxGeometry x="-0.2351" relative="1" as="geometry">
            <mxPoint as="offset" />
          </mxGeometry>
        </mxCell>
        <mxCell id="Njs2g6kiYrGpvOyY1wpJ-99" value="&lt;div style=&quot;&quot;&gt;&lt;span style=&quot;font-size: 10px;&quot;&gt;Payment information&lt;/span&gt;&lt;/div&gt;" style="ellipse;whiteSpace=wrap;html=1;aspect=fixed;align=center;labelBackgroundColor=none;labelBorderColor=none;fillColor=#fff2cc;strokeColor=#d6b656;" vertex="1" parent="1">
          <mxGeometry x="190" y="1550" width="60" height="60" as="geometry" />
        </mxCell>
        <mxCell id="Njs2g6kiYrGpvOyY1wpJ-100" value="Items" style="ellipse;whiteSpace=wrap;html=1;aspect=fixed;labelBackgroundColor=none;labelBorderColor=none;fillColor=#fff2cc;strokeColor=#d6b656;" vertex="1" parent="1">
          <mxGeometry x="300" y="1610" width="60" height="60" as="geometry" />
        </mxCell>
        <mxCell id="Njs2g6kiYrGpvOyY1wpJ-101" value="Order details" style="ellipse;whiteSpace=wrap;html=1;aspect=fixed;labelBackgroundColor=none;labelBorderColor=none;fillColor=#fff2cc;strokeColor=#d6b656;" vertex="1" parent="1">
          <mxGeometry x="420" y="1530" width="70" height="70" as="geometry" />
        </mxCell>
        <mxCell id="Njs2g6kiYrGpvOyY1wpJ-105" value="&lt;font&gt;Invalid record&lt;/font&gt;" style="ellipse;whiteSpace=wrap;html=1;aspect=fixed;fillColor=#fff2cc;strokeColor=#d6b656;" vertex="1" parent="1">
          <mxGeometry x="50" y="1530" width="80" height="80" as="geometry" />
        </mxCell>
        <mxCell id="Njs2g6kiYrGpvOyY1wpJ-106" value="Shops data" style="text;html=1;align=center;verticalAlign=middle;resizable=0;points=[];autosize=1;strokeColor=#b85450;fillColor=#f8cecc;" vertex="1" parent="1">
          <mxGeometry x="760" y="1128" width="80" height="30" as="geometry" />
        </mxCell>
      </root>
    </mxGraphModel>
  </diagram>
</mxfile>
